# xmcd CD database file
#
# Track frame offsets:
#	200
#	22850
#	45350
#	62900
#	78650
#	110075
#	127400
#	146300
#	177800
#	200600
#	212675
#	234050
#	260032
#
# Disc length: 3481 seconds
#
# Revision: 0
# Processed by: cddbd v1.5.2PL0 Copyright (c) Steve Scherf et al.
# Submitted via: CDex 1.70beta2
#
DISCID=b70d970d
DTITLE=Lee Konitz - Frank Wunsch - frank-lee speaking
DYEAR=1992
DGENRE=Jazz
TTITLE0=Canzona
TTITLE1=A Minor Thought
TTITLE2=Venice
TTITLE3=Sunday Blue
TTITLE4=Fourtune
TTITLE5=Lute Flute
TTITLE6=Frankly Speaking
TTITLE7=September Waltz
TTITLE8=Dolphy and Konitz
TTITLE9=Low Moon
TTITLE10=Come Home
TTITLE11=Body and Soul
TTITLE12=Applause
EXTD=YEAR: 1992
EXTT0=
EXTT1=
EXTT2=
EXTT3=
EXTT4=
EXTT5=
EXTT6=
EXTT7=
EXTT8=
EXTT9=
EXTT10=
EXTT11=
EXTT12=
PLAYORDER=
